<svg xmlns="http://www.w3.org/2000/svg" version="1.1" display="none">
  <symbol id="dribbble-icon" viewBox="0 0 64 64">
    <path d="M32 48c-8.8 0-16-7.2-16-16s7.2-16 16-16 16 7.2 16 16S40.8 48 32 48zM45.5 34.2C45 34 41.3 32.9 37 33.6c1.8 4.9 2.5 8.9 2.7 9.7C42.7 41.3 44.9 38 45.5 34.2zM37.3 44.6c-0.2-1.2-1-5.4-2.9-10.4 0 0-0.1 0-0.1 0 -7.7 2.7-10.5 8-10.7 8.5 2.3 1.8 5.2 2.9 8.4 2.9C33.9 45.7 35.7 45.3 37.3 44.6zM21.8 41.2c0.3-0.5 4.1-6.7 11.1-9 0.2-0.1 0.4-0.1 0.5-0.2 -0.3-0.8-0.7-1.6-1.1-2.3 -6.8 2-13.4 2-14 1.9 0 0.1 0 0.3 0 0.4C18.3 35.5 19.7 38.7 21.8 41.2zM18.6 29.2c0.6 0 6.2 0 12.6-1.7 -2.3-4-4.7-7.4-5.1-7.9C22.4 21.5 19.5 25 18.6 29.2zM28.8 18.7c0.4 0.5 2.9 3.9 5.1 8 4.9-1.8 6.9-4.6 7.2-4.9 -2.4-2.1-5.6-3.4-9.1-3.4C30.9 18.4 29.8 18.5 28.8 18.7zM42.6 23.4c-0.3 0.4-2.6 3.3-7.6 5.4 0.3 0.7 0.6 1.3 0.9 2 0.1 0.2 0.2 0.5 0.3 0.7 4.5-0.6 9.1 0.3 9.5 0.4C45.6 28.7 44.5 25.7 42.6 23.4z"/>
  </symbol>
</svg>
