<svg xmlns="http://www.w3.org/2000/svg" version="1.1" display="none">
  <path d="M46.91 25.816c-0.073-1.597-0.326-2.687-0.697-3.641 -0.383-0.986-0.896-1.823-1.73-2.657 -0.834-0.834-1.67-1.347-2.657-1.73 -0.954-0.371-2.045-0.624-3.641-0.697C36.585 17.017 36.074 17 32 17s-4.585 0.017-6.184 0.09c-1.597 0.073-2.687 0.326-3.641 0.697 -0.986 0.383-1.823 0.896-2.657 1.73 -0.834 0.834-1.347 1.67-1.73 2.657 -0.371 0.954-0.624 2.045-0.697 3.641C17.017 27.415 17 27.926 17 32c0 4.074 0.017 4.585 0.09 6.184 0.073 1.597 0.326 2.687 0.697 3.641 0.383 0.986 0.896 1.823 1.73 2.657 0.834 0.834 1.67 1.347 2.657 1.73 0.954 0.371 2.045 0.624 3.641 0.697C27.415 46.983 27.926 47 32 47s4.585-0.017 6.184-0.09c1.597-0.073 2.687-0.326 3.641-0.697 0.986-0.383 1.823-0.896 2.657-1.73 0.834-0.834 1.347-1.67 1.73-2.657 0.371-0.954 0.624-2.045 0.697-3.641C46.983 36.585 47 36.074 47 32S46.983 27.415 46.91 25.816zM44.21 38.061c-0.067 1.462-0.311 2.257-0.516 2.785 -0.272 0.7-0.597 1.2-1.122 1.725 -0.525 0.525-1.025 0.85-1.725 1.122 -0.529 0.205-1.323 0.45-2.785 0.516 -1.581 0.072-2.056 0.087-6.061 0.087s-4.48-0.015-6.061-0.087c-1.462-0.067-2.257-0.311-2.785-0.516 -0.7-0.272-1.2-0.597-1.725-1.122 -0.525-0.525-0.85-1.025-1.122-1.725 -0.205-0.529-0.45-1.323-0.516-2.785 -0.072-1.582-0.087-2.056-0.087-6.061s0.015-4.48 0.087-6.061c0.067-1.462 0.311-2.257 0.516-2.785 0.272-0.7 0.597-1.2 1.122-1.725 0.525-0.525 1.025-0.85 1.725-1.122 0.529-0.205 1.323-0.45 2.785-0.516 1.582-0.072 2.056-0.087 6.061-0.087s4.48 0.015 6.061 0.087c1.462 0.067 2.257 0.311 2.785 0.516 0.7 0.272 1.2 0.597 1.725 1.122 0.525 0.525 0.85 1.025 1.122 1.725 0.205 0.529 0.45 1.323 0.516 2.785 0.072 1.582 0.087 2.056 0.087 6.061S44.282 36.48 44.21 38.061zM32 24.297c-4.254 0-7.703 3.449-7.703 7.703 0 4.254 3.449 7.703 7.703 7.703 4.254 0 7.703-3.449 7.703-7.703C39.703 27.746 36.254 24.297 32 24.297zM32 37c-2.761 0-5-2.239-5-5 0-2.761 2.239-5 5-5s5 2.239 5 5C37 34.761 34.761 37 32 37zM40.007 22.193c-0.994 0-1.8 0.806-1.8 1.8 0 0.994 0.806 1.8 1.8 1.8 0.994 0 1.8-0.806 1.8-1.8C41.807 22.999 41.001 22.193 40.007 22.193z"/>
</svg>
