<svg xmlns="http://www.w3.org/2000/svg" version="1.1" display="none">
  <path d="M48 22.1c-1.2 0.5-2.4 0.9-3.8 1 1.4-0.8 2.4-2.1 2.9-3.6 -1.3 0.8-2.7 1.3-4.2 1.6C41.7 19.8 40 19 38.2 19c-3.6 0-6.6 2.9-6.6 6.6 0 0.5 0.1 1 0.2 1.5 -5.5-0.3-10.3-2.9-13.5-6.9 -0.6 1-0.9 2.1-0.9 3.3 0 2.3 1.2 4.3 2.9 5.5 -1.1 0-2.1-0.3-3-0.8 0 0 0 0.1 0 0.1 0 3.2 2.3 5.8 5.3 6.4 -0.6 0.1-1.1 0.2-1.7 0.2 -0.4 0-0.8 0-1.2-0.1 0.8 2.6 3.3 4.5 6.1 4.6 -2.2 1.8-5.1 2.8-8.2 2.8 -0.5 0-1.1 0-1.6-0.1 2.9 1.9 6.4 2.9 10.1 2.9 12.1 0 18.7-10 18.7-18.7 0-0.3 0-0.6 0-0.8C46 24.5 47.1 23.4 48 22.1z"/>
</svg>
